<svg xmlns="http://www.w3.org/2000/svg" viewBox="20 15 400 78">
<path fill="#EE005D" d="M85.8,62.5l0-34.3l17.1,0l0,35.4c-0.3,8-5.2,14.7-12.5,17.6c-7.9,3.1-16.7,1.1-22.3-5.4L51.8,56.7L51.7,82&#xA;&#x9;&#x9;&#x9;l-17.1,0l0-37.3c0.5-9,7.6-16,16.6-16.4l29.5,0l0,17.4l-17.3,0.1L81.2,65c0.9,0.6,2.1,0.8,3.1,0.3C85.1,64.9,85.8,63.7,85.8,62.5z&#xA;&#x9;&#x9;&#x9;"></path>
<path fill="#FFFFFF" d="M187.3,62.2V22h17.1v40.1c0,8.8,3.8,12.1,11.3,12.1c7.5,0,11.3-3.2,11.3-12.1V22h17.1v40.1c0,16.9-7.9,26-28.4,26&#xA;&#x9;&#x9;&#x9;&#x9;&#x9;C195.2,88.2,187.3,79.1,187.3,62.2z"></path>
<polygon fill="#FFFFFF" points="180.2,86.1 154.4,86.1 137.4,39.6 137.3,86.1 120.3,86.1 120.3,22.1 147.5,22.1 163.1,66.9 163.2,22.1 &#xA;&#x9;&#x9;&#x9;&#x9;180.2,22.1 &#x9;&#x9;&#x9;"></polygon>
<path fill="#FFFFFF" d="M366.8,86.1l31.9,0l0-16l-29.6,0c-1.5,0-2.6-0.7-2.9-1.9c-0.3-1.2,0.2-2.8,1.5-3.2l19.2-5.9&#xA;&#x9;&#x9;&#x9;&#x9;c11.6-3.6,16.2-15.9,11.2-26.5c-3-6.2-8.8-10-15.8-10.4l-26,0l0,16l24.9,0c1.3,0.2,2.2,1.1,2.4,2.3c0.2,1.3-0.5,2.6-1.9,3&#xA;&#x9;&#x9;&#x9;&#x9;L361,49.8c-8.9,2.8-13.7,11.6-12.2,20.6C350.3,79.4,357.4,86.1,366.8,86.1z"></path>
<polyline fill="#FFFFFF" points="341.3,21 341.3,21 341.3,21 341.3,85 324.3,85 324.3,21 &#x9;&#x9;&#x9;"></polyline>
<path fill="#EE005D" d="M294.9,43.5c1.4-0.4,2.1-1.7,1.9-3c-0.2-1.1-1.1-2.1-2.4-2.3l-24.9,0l0,0l-0.1,0l0,0.1v14&#xA;&#x9;&#x9;&#x9;&#x9;&#x9;c1.4-1,3-1.7,4.7-2.3L294.9,43.5z"></path>
<path fill="#FFFFFF" d="M315.4,59.5c-1.4-2.9-3.4-5.3-5.8-7c4.1-5.5,4.9-13,1.6-19.9c-3-6.2-8.8-10-15.8-10.4l-6.8,0v0l-15.5,0l-3.8,0v0&#xA;&#x9;&#x9;&#x9;&#x9;&#x9;l-17.1,0l0,64l50,0l-0.1-0.2l2,0C315.8,82.5,320.5,70.1,315.4,59.5z M269.4,38.3L269.4,38.3l0.1-0.1l0,0l24.9,0&#xA;&#x9;&#x9;&#x9;&#x9;&#x9;c1.3,0.2,2.2,1.1,2.4,2.3c0.2,1.3-0.5,2.6-1.9,3L274.1,50c-1.7,0.5-3.3,1.3-4.7,2.3V38.3z M297,73.2h-21.7c-3,0-5.4-2.4-5.4-5.4&#xA;&#x9;&#x9;&#x9;&#x9;&#x9;s2.4-5.4,5.4-5.4H297c3,0,5.4,2.4,5.4,5.4S300,73.2,297,73.2z"></path>
</svg>