<svg xmlns="http://www.w3.org/2000/svg" viewBox="0 0 431.3 135.9">
<path fill="#EE005D" d="M85.8,62.5l0-34.3l17.1,0l0,35.4c-0.3,8-5.2,14.7-12.5,17.6c-7.9,3.1-16.7,1.1-22.3-5.4L51.8,56.7L51.7,82&#xA;&#x9;&#x9;&#x9;l-17.1,0l0-37.3c0.5-9,7.6-16,16.6-16.4l29.5,0l0,17.4l-17.3,0.1L81.2,65c0.9,0.6,2.1,0.8,3.1,0.3C85.1,64.9,85.8,63.7,85.8,62.5z&#xA;&#x9;&#x9;&#x9;"></path>
<path fill="#FFFFFF" d="M187.3,62.2V22h17.1v40.1c0,8.8,3.8,12.1,11.3,12.1c7.5,0,11.3-3.2,11.3-12.1V22h17.1v40.1c0,16.9-7.9,26-28.4,26&#xA;&#x9;&#x9;&#x9;&#x9;&#x9;C195.2,88.2,187.3,79.1,187.3,62.2z"></path>
<polygon fill="#FFFFFF" points="180.2,86.1 154.4,86.1 137.4,39.6 137.3,86.1 120.3,86.1 120.3,22.1 147.5,22.1 163.1,66.9 163.2,22.1 &#xA;&#x9;&#x9;&#x9;&#x9;180.2,22.1 &#x9;&#x9;&#x9;"></polygon>
<path fill="#FFFFFF" d="M366.8,86.1l31.9,0l0-16l-29.6,0c-1.5,0-2.6-0.7-2.9-1.9c-0.3-1.2,0.2-2.8,1.5-3.2l19.2-5.9&#xA;&#x9;&#x9;&#x9;&#x9;c11.6-3.6,16.2-15.9,11.2-26.5c-3-6.2-8.8-10-15.8-10.4l-26,0l0,16l24.9,0c1.3,0.2,2.2,1.1,2.4,2.3c0.2,1.3-0.5,2.6-1.9,3&#xA;&#x9;&#x9;&#x9;&#x9;L361,49.8c-8.9,2.8-13.7,11.6-12.2,20.6C350.3,79.4,357.4,86.1,366.8,86.1z"></path>
<polyline fill="#FFFFFF" points="341.3,21 341.3,21 341.3,21 341.3,85 324.3,85 324.3,21 &#x9;&#x9;&#x9;"></polyline>
<path fill="#EE005D" d="M294.9,43.5c1.4-0.4,2.1-1.7,1.9-3c-0.2-1.1-1.1-2.1-2.4-2.3l-24.9,0l0,0l-0.1,0l0,0.1v14&#xA;&#x9;&#x9;&#x9;&#x9;&#x9;c1.4-1,3-1.7,4.7-2.3L294.9,43.5z"></path>
<path fill="#FFFFFF" d="M315.4,59.5c-1.4-2.9-3.4-5.3-5.8-7c4.1-5.5,4.9-13,1.6-19.9c-3-6.2-8.8-10-15.8-10.4l-6.8,0v0l-15.5,0l-3.8,0v0&#xA;&#x9;&#x9;&#x9;&#x9;&#x9;l-17.1,0l0,64l50,0l-0.1-0.2l2,0C315.8,82.5,320.5,70.1,315.4,59.5z M269.4,38.3L269.4,38.3l0.1-0.1l0,0l24.9,0&#xA;&#x9;&#x9;&#x9;&#x9;&#x9;c1.3,0.2,2.2,1.1,2.4,2.3c0.2,1.3-0.5,2.6-1.9,3L274.1,50c-1.7,0.5-3.3,1.3-4.7,2.3V38.3z M297,73.2h-21.7c-3,0-5.4-2.4-5.4-5.4&#xA;&#x9;&#x9;&#x9;&#x9;&#x9;s2.4-5.4,5.4-5.4H297c3,0,5.4,2.4,5.4,5.4S300,73.2,297,73.2z"></path>
<path fill="#EE005D" d="M121.1,111.1V98.7h5.2c2.5,0,4,1.1,4,3.1c0,1.5-0.9,2.2-1.9,2.6v0c1.3,0.2,2.4,1.2,2.4,3&#xA;&#x9;&#x9;&#x9;&#x9;c0,2.4-1.6,3.6-4.2,3.6H121.1z M126.3,103.9c1.6,0,2.1-0.6,2.1-1.8c0-1.1-0.7-1.8-2-1.8h-3.4v3.5H126.3z M126.5,109.5&#xA;&#x9;&#x9;&#x9;&#x9;c1.8,0,2.4-0.9,2.4-2c0-1.3-0.8-2-2.1-2h-3.7v4.1H126.5z"></path>
<path fill="#EE005D" d="M139.6,106.9v-8.2h1.9v8.2c0,1.9,1,2.8,2.9,2.8c2,0,2.9-0.9,2.9-2.8v-8.2h1.9v8.2c0,2.7-1.4,4.5-4.9,4.5&#xA;&#x9;&#x9;&#x9;&#x9;C141,111.4,139.6,109.6,139.6,106.9z"></path>
<path fill="#EE005D" d="M157.8,106.9h2c0.1,1.7,1.1,2.8,3.5,2.8c2,0,2.6-0.9,2.6-2c0-1.6-1.2-1.8-3.5-2.4c-1.9-0.5-4.1-1.1-4.1-3.5&#xA;&#x9;&#x9;&#x9;&#x9;c0-2.2,1.7-3.4,4.3-3.4c2.8,0,4.7,1.4,4.9,3.9h-2c-0.2-1.5-1.1-2.3-2.9-2.3c-1.6,0-2.4,0.6-2.4,1.6c0,1.4,1.3,1.7,2.9,2.1&#xA;&#x9;&#x9;&#x9;&#x9;c2.4,0.6,4.6,1.2,4.6,3.8c0,2.1-1.4,3.7-4.5,3.7C160.1,111.4,157.9,109.7,157.8,106.9z"></path>
<path fill="#EE005D" d="M176.5,111.1V98.7h1.9v12.4H176.5z"></path>
<path fill="#EE005D" d="M187.8,111.1V98.7h2.2l5.8,9.5h0v-9.5h1.9v12.4h-2.2l-5.8-9.5h0v9.5H187.8z"></path>
<path fill="#EE005D" d="M207.1,111.1V98.7h8.8v1.6H209v3.5h6v1.6h-6v3.9h7v1.6H207.1z"></path>
<path fill="#EE005D" d="M223.9,106.9h2c0.1,1.7,1.1,2.8,3.5,2.8c2,0,2.6-0.9,2.6-2c0-1.6-1.2-1.8-3.5-2.4c-1.9-0.5-4.1-1.1-4.1-3.5&#xA;&#x9;&#x9;&#x9;&#x9;c0-2.2,1.7-3.4,4.3-3.4c2.8,0,4.7,1.4,4.9,3.9h-2c-0.2-1.5-1.1-2.3-2.9-2.3c-1.6,0-2.4,0.6-2.4,1.6c0,1.4,1.3,1.7,2.9,2.1&#xA;&#x9;&#x9;&#x9;&#x9;c2.4,0.6,4.6,1.2,4.6,3.8c0,2.1-1.4,3.7-4.5,3.7C226.3,111.4,224.1,109.7,223.9,106.9z"></path>
<path fill="#EE005D" d="M241.8,106.9h2c0.1,1.7,1.1,2.8,3.5,2.8c2,0,2.6-0.9,2.6-2c0-1.6-1.2-1.8-3.5-2.4c-1.9-0.5-4.1-1.1-4.1-3.5&#xA;&#x9;&#x9;&#x9;&#x9;c0-2.2,1.7-3.4,4.3-3.4c2.8,0,4.7,1.4,4.9,3.9h-2c-0.2-1.5-1.1-2.3-2.9-2.3c-1.6,0-2.4,0.6-2.4,1.6c0,1.4,1.3,1.7,2.9,2.1&#xA;&#x9;&#x9;&#x9;&#x9;c2.4,0.6,4.6,1.2,4.6,3.8c0,2.1-1.4,3.7-4.5,3.7C244.2,111.4,242,109.7,241.8,106.9z"></path>
<path fill="#EE005D" d="M270.3,106.9h2c0.1,1.7,1.1,2.8,3.5,2.8c2,0,2.6-0.9,2.6-2c0-1.6-1.2-1.8-3.5-2.4c-1.9-0.5-4.1-1.1-4.1-3.5&#xA;&#x9;&#x9;&#x9;&#x9;c0-2.2,1.7-3.4,4.3-3.4c2.8,0,4.7,1.4,4.9,3.9h-2c-0.2-1.5-1.1-2.3-2.9-2.3c-1.6,0-2.4,0.6-2.4,1.6c0,1.4,1.3,1.7,2.9,2.1&#xA;&#x9;&#x9;&#x9;&#x9;c2.4,0.6,4.6,1.2,4.6,3.8c0,2.1-1.4,3.7-4.5,3.7C272.6,111.4,270.4,109.7,270.3,106.9z"></path>
<path fill="#EE005D" d="M289,111.1V98.7h8.8v1.6h-6.9v3.5h6v1.6h-6v3.9h7v1.6H289z"></path>
<path fill="#EE005D" d="M306.7,111.1V98.7h5.2c2.7,0,4.2,1.3,4.2,3.6c0,1.6-1,2.7-2.3,3v0c2.9,0.5,1.8,5.4,2.5,5.6v0.1h-2&#xA;&#x9;&#x9;&#x9;&#x9;c-0.6-0.5,0.6-4.9-2.4-4.9h-3.2v4.9H306.7z M311.4,104.6c1.8,0,2.7-0.8,2.7-2.2c0-1.3-0.8-2.1-2.7-2.1h-2.9v4.2H311.4z"></path>
<path fill="#EE005D" d="M328,111.1l-4.4-12.4h2.1l3.3,10.4h0l3.3-10.4h2l-4.3,12.4H328z"></path>
<path fill="#EE005D" d="M342.6,111.1V98.7h1.9v12.4H342.6z"></path>
<path fill="#EE005D" d="M353.3,104.9c0-3.7,2.3-6.5,5.8-6.5c3.1,0,5,2,5.3,4.5h-2c-0.2-1.2-1-2.8-3.4-2.8c-2.7,0-3.8,2.3-3.8,4.8&#xA;&#x9;&#x9;&#x9;&#x9;c0,2.5,1,4.8,3.8,4.8c2.4,0,3.2-1.6,3.4-3.1h2c-0.3,2.8-2.2,4.8-5.3,4.8C355.6,111.4,353.3,108.7,353.3,104.9z"></path>
<path fill="#EE005D" d="M373.1,111.1V98.7h8.8v1.6H375v3.5h6v1.6h-6v3.9h7v1.6H373.1z"></path>
<path fill="#EE005D" d="M390,106.9h2c0.1,1.7,1.1,2.8,3.5,2.8c2,0,2.6-0.9,2.6-2c0-1.6-1.2-1.8-3.5-2.4c-1.9-0.5-4.1-1.1-4.1-3.5&#xA;&#x9;&#x9;&#x9;&#x9;c0-2.2,1.7-3.4,4.3-3.4c2.8,0,4.7,1.4,4.9,3.9h-2c-0.2-1.5-1.1-2.3-2.9-2.3c-1.6,0-2.4,0.6-2.4,1.6c0,1.4,1.3,1.7,2.9,2.1&#xA;&#x9;&#x9;&#x9;&#x9;c2.4,0.6,4.6,1.2,4.6,3.8c0,2.1-1.4,3.7-4.5,3.7C392.3,111.4,390.1,109.7,390,106.9z"></path>
</svg>